<svg id="visual" viewBox="0 0 900 600" width="900" height="600" xmlns="http://www.w3.org/2000/svg" xmlns:xlink="http://www.w3.org/1999/xlink" version="1.1"><g transform="translate(463.6304516022085 280.7624143931114)"><path d="M122.5 -189.1C146.6 -175.1 145.6 -120.6 161.4 -76.5C177.3 -32.4 209.9 1.2 205.3 29.2C200.7 57.1 158.9 79.3 129.8 112C100.7 144.7 84.3 188 53.2 210.6C22.1 233.2 -23.8 235.1 -71.1 227.8C-118.4 220.4 -167.3 203.9 -184.6 168.5C-201.8 133.2 -187.5 79 -197 27C-206.4 -24.9 -239.7 -74.8 -231.8 -111.6C-223.9 -148.4 -174.9 -172.2 -129.5 -176.4C-84 -180.7 -42 -165.3 3.6 -171C49.2 -176.6 98.4 -203.1 122.5 -189.1" fill="#b6e7f0"></path></g></svg>