<svg id="visual" viewBox="0 0 900 600" width="900" height="600" xmlns="http://www.w3.org/2000/svg" xmlns:xlink="http://www.w3.org/1999/xlink" version="1.1"><g transform="translate(404.0963558073536 297.34088004366095)"><path d="M113.6 -156.4C159.1 -147.5 216 -136.1 231.5 -104.9C246.9 -73.7 221 -22.9 207.2 25.4C193.5 73.7 192 119.4 166.7 139.3C141.4 159.3 92.4 153.5 50.8 159.8C9.1 166 -25.2 184.2 -54.9 179.1C-84.7 174 -110 145.6 -124.8 115.4C-139.7 85.3 -144.1 53.3 -144.4 23.3C-144.8 -6.7 -141.1 -34.7 -134.8 -67C-128.5 -99.3 -119.7 -135.9 -96.8 -155.1C-73.9 -174.3 -36.9 -176.2 -1.4 -173.9C34.1 -171.7 68.1 -165.3 113.6 -156.4" fill="#b6e7f0"></path></g></svg>